<svg xmlns="http://www.w3.org/2000/svg" viewBox="0 0 64 64" role="img" aria-labelledby="title">
  <title>DB</title>
  <rect width="64" height="64" rx="18" fill="#f7f4ee"/>
  <rect x="4" y="4" width="56" height="56" rx="16" fill="none" stroke="#1f1d1a" stroke-opacity="0.14"/>
  <path d="M18 18h12c9 0 14 4.8 14 12 0 4.5-2.3 8.1-6.2 10 4.9 1.4 8.2 5.3 8.2 10.8 0 8.1-5.9 13.2-15.9 13.2H18V18Zm8 7v12h3.2c4.6 0 7-2.2 7-6.1 0-3.9-2.3-5.9-6.7-5.9H26Zm0 18v14h4.1c4.9 0 7.6-2.3 7.6-6.8 0-4.7-2.7-7.2-8.1-7.2H26Z" fill="#1f1d1a"/>
</svg>
